<svg xmlns:dc="http://purl.org/dc/elements/1.1/" xmlns:svg="http://www.w3.org/2000/svg" xmlns="http://www.w3.org/2000/svg" version="1.1" x="0px" y="0px" viewBox="0 0 100 100"><g transform="translate(0,-952.36218)"><path style="text-indent:0;text-transform:none;direction:ltr;block-progression:tb;baseline-shift:baseline;color:#000000;enable-background:accumulate;" d="m 18.00175,957.36982 c -2.7527,0 -5,2.2473 -5,5 l 0,73.99998 c 0,2.7527 2.2473,5 5,5 l 45.9688,0 5.2812,5.6562 c 0.4125,0.4525 1.0906,0.4233 1.4688,0 l 13.9062,-14.875 c 3.162,-3.3906 3.162,-8.7969 0,-12.1874 -2.5956,-2.7833 -6.5158,-3.3494 -9.625,-1.5313 l 0,-56.06248 c 0,-2.7527 -2.2473,-5 -5,-5 l -52,0 z m 0,2 52,0 c 1.6793,0 3,1.3207 3,3 l 0,57.68748 -3,3.2187 -3.0938,-3.3124 c -3.568,-3.6759 -8.4557,-3.1918 -11.5312,0 -3.1621,3.3905 -3.1621,8.7968 0,12.1874 l 6.7188,7.2188 -44.0938,0 c -1.6793,0 -3,-1.3207 -3,-3 l 0,-73.99998 c 0,-1.6793 1.3207,-3 3,-3 z m 8,10 c -0.5523,0 -1,0.4477 -1,1 0,0.5523 0.4477,1 1,1 l 36,0 c 0.5523,0 1,-0.4477 1,-1 0,-0.5523 -0.4477,-1 -1,-1 l -36,0 z m 0,14 c -0.5523,0 -1,0.4477 -1,1 0,0.5523 0.4477,1 1,1 l 36,0 c 0.5523,0 1,-0.4477 1,-1 0,-0.5523 -0.4477,-1 -1,-1 l -36,0 z m 0,14 c -0.5523,0 -1,0.4477 -1,1 0,0.5523 0.4477,1 1,1 l 36,0 c 0.5523,0 1,-0.4477 1,-1 0,-0.5523 -0.4477,-1 -1,-1 l -36,0 z m 0,13.99998 c -0.5523,0 -1,0.4477 -1,1 0,0.5523 0.4477,1 1,1 l 36,0 c 0.5523,0 1,-0.4477 1,-1 0,-0.5523 -0.4477,-1 -1,-1 l -36,0 z m 52.8438,8 c 1.5493,0 3.0961,0.6645 4.3124,1.9688 2.4325,2.6084 2.4325,6.829 0,9.4374 l -13.1562,14.125 -13.1562,-14.125 c -2.4327,-2.6084 -2.4327,-6.829 0,-9.4374 1.2163,-1.3044 2.7632,-1.9376 4.3124,-1.9376 1.5492,0 3.0943,0.6312 4.3126,1.9376 l 3.7812,4.0937 c 0.3734,0.4037 1.0955,0.4037 1.4688,0 l 3.8124,-4.0937 c 1.2164,-1.3043 2.763,-1.9688 4.3126,-1.9688 z m -52.8438,6 c -0.5523,0 -1,0.4477 -1,1 0,0.5523 0.4477,1 1,1 l 20,0 c 0.5523,0 1,-0.4477 1,-1 0,-0.5523 -0.4477,-1 -1,-1 l -20,0 z" fill="#000000" fill-opacity="1" stroke="none" marker="none" visibility="visible" display="inline" overflow="visible"></path></g></svg>